<?xml version="1.0" encoding="UTF-8"?>
<svg version="1.1" xmlns="http://www.w3.org/2000/svg" width="500" height="500" viewBox="0 0 500 500">
<path d="M0 0 C0.33 0 0.66 0 1 0 C0.49362954 17.77534922 -1.08068245 35.33252852 -3 53 C-2.23196045 53.05043457 -1.4639209 53.10086914 -0.67260742 53.15283203 C7.83046856 53.7536795 16.24278171 54.72362056 24.6875 55.875 C26.01423902 56.05316005 27.34098058 56.23130112 28.66772461 56.40942383 C36.53668834 57.47531978 44.36885376 58.67958399 52.18774414 60.0637207 C57.52004689 60.98529778 62.81089702 61.42171807 68.20703125 61.75 C71.970026 62.0868275 75.38110752 62.93561986 79 64 C76.28926178 66.18947193 73.8774417 67.58942963 70.5859375 68.71875 C69.31943359 69.15767578 69.31943359 69.15767578 68.02734375 69.60546875 C66.71443359 70.04826172 66.71443359 70.04826172 65.375 70.5 C64.52292969 70.79519531 63.67085937 71.09039062 62.79296875 71.39453125 C58.52934613 72.85874053 54.25252015 74.24053955 49.9296875 75.51953125 C45.14979786 76.93451325 40.44877221 78.5248501 35.75 80.1875 C34.90590576 80.48430664 34.06181152 80.78111328 33.19213867 81.08691406 C25.64101454 83.75177253 18.11513671 86.48595127 10.59863281 89.24682617 C9.30650879 89.72019409 9.30650879 89.72019409 7.98828125 90.203125 C7.16021973 90.50669922 6.3321582 90.81027344 5.47900391 91.12304688 C2.24842074 92.26587283 -1.01683973 93.28661105 -4.29614258 94.28027344 C-6.20544294 94.86928928 -6.20544294 94.86928928 -7 97 C-7.19234652 98.42710431 -7.33407089 99.86121419 -7.44897461 101.29663086 C-7.5225972 102.19127548 -7.59621979 103.0859201 -7.67207336 104.00767517 C-7.74806259 104.9835408 -7.82405182 105.95940643 -7.90234375 106.96484375 C-7.98433517 107.97724625 -8.0663266 108.98964874 -8.15080261 110.0327301 C-8.4170419 113.33401223 -8.67729509 116.63573725 -8.9375 119.9375 C-9.1186659 122.19533755 -9.30014396 124.45315008 -9.48193359 126.7109375 C-10.49504618 139.34672189 -11.4503618 151.9853006 -12.34692383 164.62988281 C-12.96699527 173.12128014 -13.88109878 181.56062804 -15 190 C-17.5976042 188.7011979 -17.85970675 187.54035763 -19.05859375 184.921875 C-19.63770508 183.67470703 -19.63770508 183.67470703 -20.22851562 182.40234375 C-20.62748047 181.52707031 -21.02644531 180.65179688 -21.4375 179.75 C-23.76714031 174.68027704 -26.08710195 169.76577698 -29 165 C-29.59725398 163.57658854 -30.15935253 162.13797329 -30.6875 160.6875 C-33.31527964 153.94319865 -36.64242802 147.56668161 -39.92236328 141.12304688 C-41.69430875 137.6321457 -43.43972551 134.12804658 -45.1875 130.625 C-45.84752796 129.30462336 -46.50768031 127.9843089 -47.16796875 126.6640625 C-49.4453125 122.109375 -51.72265625 117.5546875 -54 113 C-59.63549927 113.56354993 -64.28253963 115.09706815 -69.5 117.25 C-76.29777531 119.97660691 -83.10324415 122.41726315 -90.0703125 124.6796875 C-94.6961039 126.20569716 -99.25012749 127.9205581 -103.8125 129.625 C-110.15315875 131.99105889 -116.47586208 134.18179763 -123 136 C-118.64169383 130.79424541 -114.07464103 125.80888301 -109.45825195 120.83349609 C-106.18628865 117.30141856 -102.98254202 113.7231325 -99.83203125 110.08203125 C-97.46749955 107.39483425 -95.0477972 104.759518 -92.625 102.125 C-88.37388138 97.50086121 -84.12447926 92.87621227 -79.953125 88.1796875 C-78.76040126 86.84860781 -77.54626242 85.53585559 -76.296875 84.2578125 C-74.68900152 82.63180567 -74.68900152 82.63180567 -73 80 C-73.19685738 74.28257706 -75.97882653 69.87590677 -78.6875 65 C-82.94361653 57.15187972 -86.6348837 49.26560948 -90 41 C-79.87753804 41.70254158 -69.82683994 42.77254436 -59.75390625 43.98242188 C-49.01160723 45.87511144 -49.01160723 45.87511144 -38.8359375 43.75 C-38.35382813 43.1725 -37.87171875 42.595 -37.375 42 C-36.81167969 41.35546875 -36.24835938 40.7109375 -35.66796875 40.046875 C-35.11753906 39.37140625 -34.56710938 38.6959375 -34 38 C-32.89800175 36.74808791 -31.79378956 35.49812156 -30.6875 34.25 C-30.11386719 33.58484375 -29.54023438 32.9196875 -28.94921875 32.234375 C-26.66979306 29.62148624 -24.33787647 27.06069979 -22 24.5 C-19.13528185 21.35916444 -16.28814098 18.20899244 -13.5 15 C-10.57277848 11.63859729 -7.60955505 8.31052773 -4.625 5 C-3.77164063 4.05125 -2.91828125 3.1025 -2.0390625 2.125 C-1.36617188 1.42375 -0.69328125 0.7225 0 0 Z " fill="#141414" transform="translate(284,167)"/>
<path d="M0 0 C0.33 0 0.66 0 1 0 C0.27247184 9.03666554 -0.83834968 18.0113077 -2 27 C-1.09121094 27.07347656 -1.09121094 27.07347656 -0.1640625 27.1484375 C5.07075117 27.61554395 10.1229128 28.3669815 15.26171875 29.45703125 C20.47607142 30.49097565 25.74191948 31.22529848 31 32 C28.8691815 34.1308185 27.68971024 34.60614006 24.88671875 35.55078125 C24.04947266 35.83759766 23.21222656 36.12441406 22.34960938 36.41992188 C21.47111328 36.71447266 20.59261719 37.00902344 19.6875 37.3125 C11.70259505 40.01517793 3.88042263 42.96906822 -4 46 C-5.32 57.22 -6.64 68.44 -8 80 C-8.66 80 -9.32 80 -10 80 C-11.17333984 78.47460938 -11.17333984 78.47460938 -12.4609375 76.34375 C-12.93273437 75.56773437 -13.40453125 74.79171875 -13.890625 73.9921875 C-14.62539062 72.75855469 -14.62539062 72.75855469 -15.375 71.5 C-15.85710937 70.70851563 -16.33921875 69.91703125 -16.8359375 69.1015625 C-19.80904706 64.17331024 -22.4929025 59.1805427 -25 54 C-30.3628684 55.75680172 -35.68847497 57.59315099 -41 59.5 C-46.31152503 61.40684901 -51.6371316 63.24319828 -57 65 C-52.42175347 58.58113527 -47.31579076 52.97037927 -41.77148438 47.38085938 C-39.36609555 44.88265812 -37.33344207 42.66476031 -35.7734375 39.5546875 C-36.14992068 35.30951511 -38.57960983 32.27261771 -40.9375 28.8125 C-41.88776054 27.38392894 -42.8345577 25.9530461 -43.77734375 24.51953125 C-44.20265381 23.89151611 -44.62796387 23.26350098 -45.06616211 22.61645508 C-46 21 -46 21 -46 19 C-44.7934375 19.2165625 -43.586875 19.433125 -42.34375 19.65625 C-40.72922814 19.93785265 -39.11464127 20.21908279 -37.5 20.5 C-36.31277344 20.71462891 -36.31277344 20.71462891 -35.1015625 20.93359375 C-26.12083337 22.82363738 -26.12083337 22.82363738 -17.71484375 20.53125 C-17.12832031 19.8609375 -16.54179687 19.190625 -15.9375 18.5 C-15.28007812 17.77039063 -14.62265625 17.04078125 -13.9453125 16.2890625 C-13.30335938 15.53367188 -12.66140625 14.77828125 -12 14 C-11.37867188 13.30648437 -10.75734375 12.61296875 -10.1171875 11.8984375 C-7.37717965 8.82630749 -4.73348656 5.68399793 -2.125 2.5 C-1.073125 1.2625 -1.073125 1.2625 0 0 Z " fill="#F0F0F0" transform="translate(267,201)"/>
</svg>
